<?xml version="1.0" encoding="utf-8"?>
<!-- Generator: Adobe Illustrator 25.2.1, SVG Export Plug-In . SVG Version: 6.00 Build 0)  -->
<svg version="1.1" id="Layer_1" xmlns="http://www.w3.org/2000/svg" xmlns:xlink="http://www.w3.org/1999/xlink" x="0px" y="0px"
	 viewBox="0 0 24 24" style="enable-background:new 0 0 24 24;" xml:space="preserve">
<style type="text/css">
	.st0{fill:#C82470;}
	.st1{fill:none;}
	.st2{fill:none;stroke:#FFFFFF;stroke-width:2;stroke-linecap:round;stroke-linejoin:round;}
</style>
<circle class="st0" cx="12" cy="12" r="12"/>
<path class="st1" d="M0,0h24v24H0V0z"/>
<path class="st2" d="M11,12c0,0.6,0.4,1,1,1s1-0.4,1-1s-0.4-1-1-1S11,11.4,11,12"/>
<path class="st2" d="M15.5,15.6c2-1.9,2-5.1,0-7.1s-5.1-2-7.1,0s-2,5.1,0,7.1c0.9,1,2.2,1.5,3.6,1.5"/>
<path class="st2" d="M18.8,17.9c3.2-3.8,2.8-9.5-1-12.7s-9.5-2.8-12.7,1s-2.8,9.5,1,12.7C7.8,20.2,9.9,21,12,21"/>
<path class="st2" d="M12,12v9"/>
</svg>
